<svg width="870" height="871" viewBox="0 0 870 871" fill="none" xmlns="http://www.w3.org/2000/svg">
<path d="M212.004 435.918C212.004 559.258 311.865 659.204 435.001 659.204C558.136 659.204 657.998 559.258 657.998 435.918C657.998 312.579 558.136 212.633 435.001 212.633C311.865 212.633 212.004 312.579 212.004 435.918Z" stroke="#00B192" stroke-width="40"/>
<path d="M20 435.63C20 353.551 44.3394 273.315 89.9401 205.068C135.541 136.822 200.355 83.6302 276.186 52.2199C352.018 20.8095 435.46 12.5911 515.962 28.604C596.465 44.6169 670.411 84.1418 728.449 142.181C786.488 200.219 826.013 274.165 842.026 354.667C858.039 435.17 849.82 518.612 818.41 594.443C787 670.275 733.808 735.089 665.562 780.69C597.315 826.291 517.079 850.63 435 850.63" stroke="#00B192" stroke-width="40" stroke-linecap="round"/>
</svg>
